Coordinates
version=1
nRows=4
nColumns=63
inDegrees=yes

Units are S.I. units (second, meters, Newtons, ...)
If the header above contains a line with 'inDegrees', this indicates whether rotational values are in degrees (yes) or radians (no).

endheader
time	pelvis_tilt	pelvis_list	pelvis_rotation	pelvis_tx	pelvis_ty	pelvis_tz	hip_flexion_r	hip_adduction_r	hip_rotation_r	knee_angle_r	knee_angle_r_beta	ankle_angle_r	subtalar_angle_r	mtp_angle_r	hip_flexion_l	hip_adduction_l	hip_rotation_l	knee_angle_l	knee_angle_l_beta	ankle_angle_l	subtalar_angle_l	mtp_angle_l	L5_S1_Flex_Ext	L5_S1_Lat_Bending	L5_S1_axial_rotation	L4_L5_Flex_Ext	L4_L5_Lat_Bending	L4_L5_axial_rotation	L3_L4_Flex_Ext	L3_L4_Lat_Bending	L3_L4_axial_rotation	L2_L3_Flex_Ext	L2_L3_Lat_Bending	L2_L3_axial_rotation	L1_L2_Flex_Ext	L1_L2_Lat_Bending	L1_L2_axial_rotation	L1_T12_Flex_Ext	L1_T12_Lat_Bending	L1_T12_axial_rotation	Abs_r3	Abs_r2	Abs_r1	Abs_t1	Abs_t2	neck_flexion	neck_bending	neck_rotation	arm_flex_r	arm_add_r	arm_rot_r	elbow_flex_r	pro_sup_r	wrist_flex_r	wrist_dev_r	arm_flex_l	arm_add_l	arm_rot_l	elbow_flex_l	pro_sup_l	wrist_flex_l	wrist_dev_l
      7.78300000	    -62.56658620	     -3.88383086	     -1.03246711	     -0.31559576	      1.14474642	      0.05317617	    112.22594671	     -5.24138671	     -6.82431380	     67.77778474	      1.18294550	     18.38277717	     -8.83821401	      0.00000000	     99.72707048	     -8.47539022	      2.91115737	     76.84880009	      1.34126459	     10.20936821	      1.06064988	      0.00000000	     -0.09841232	      0.92005147	     -0.01118353	     -0.18276152	      1.22366845	     -0.01188251	     -0.16168160	      2.23701314	     -0.01188251	     -0.11247544	      2.23701314	     -0.00978559	     -0.09138568	      1.87616895	     -0.00908662	     -0.05623280	      1.42515972	     -0.00838765	     -0.70294937	     10.40780622	     -0.06219947	      0.00000000	      0.00000000	      0.00000000	      0.00000000	      0.00000000	     69.42120472	     -5.46111073	      2.60501237	     39.44599801	     59.26526625	      0.00000000	      5.00000014	     64.81057772	     -4.46716574	     -7.50323184	     40.03304877	     58.65040312	      0.00000000	      5.00000014
      7.79200000	    -62.46271848	     -3.82257129	     -0.42328149	     -0.31492831	      1.14476032	      0.05261009	    111.25262202	     -5.55747478	     -6.40751047	     66.06869273	      1.15311622	     17.75434830	     -8.76308971	      0.00000000	    100.38339442	     -7.90822712	      3.00814729	     78.75217171	      1.37448469	     10.59778097	      0.82596077	      0.00000000	     -0.10169329	      0.90035548	     -0.12726677	     -0.18885460	      1.19747279	     -0.13522094	     -0.16707190	      2.18912431	     -0.13522094	     -0.11622526	      2.18912431	     -0.11135842	     -0.09443239	      1.83600489	     -0.10340425	     -0.05810754	      1.39465064	     -0.09545007	     -0.72638498	     10.18500124	     -0.70781958	      0.00000000	      0.00000000	      0.00000000	      0.00000000	      0.00000000	     69.23115116	     -5.46698871	      2.57731086	     39.51736091	     59.27891291	      0.00000000	      5.00000014	     64.76487068	     -4.48255161	     -7.53494504	     40.00370042	     58.66445336	      0.00000000	      5.00000014
      7.80000000	    -62.40697673	     -4.14817309	     -0.26149872	     -0.31405796	      1.14476064	      0.05224276	    110.05359300	     -5.48732677	     -6.45358887	     64.02137305	      1.11738375	     17.27947355	     -9.20919988	      0.00000000	    101.24287024	     -7.71616825	      3.56821881	     80.77337798	      1.40976139	     10.73674509	      0.43411326	      0.00000000	     -0.09925416	      0.93687406	     -0.15843376	     -0.18432491	      1.24604249	     -0.16833587	     -0.16306467	      2.27791558	     -0.16833587	     -0.11343758	      2.27791558	     -0.13862954	     -0.09216742	      1.91047357	     -0.12872743	     -0.05671383	      1.45121791	     -0.11882532	     -0.70896257	     10.59810669	     -0.88116107	      0.00000000	      0.00000000	      0.00000000	      0.00000000	      0.00000000	     69.14274270	     -5.53343747	      2.45444229	     39.50999182	     59.32243960	      0.00000000	      5.00000014	     64.53733694	     -4.36821401	     -7.63790010	     40.01155907	     58.70788238	      0.00000000	      5.00000014
      7.80800000	    -62.31072194	     -4.19883439	      0.18365396	     -0.31316915	      1.14464177	      0.05174440	    108.98314610	     -5.68733774	     -6.24447340	     62.26374277	      1.08670732	     16.54098572	     -9.26191529	      0.00000000	    101.97530377	     -7.30255118	      3.80512838	     82.68097950	      1.44305532	     11.12050444	      0.26152326	      0.00000000	     -0.09911973	      0.93465648	     -0.25253314	     -0.18407525	      1.24309312	     -0.26831646	     -0.16284380	      2.27252377	     -0.26831646	     -0.11328394	      2.27252377	     -0.22096649	     -0.09204258	      1.90595150	     -0.20518317	     -0.05663701	      1.44778289	     -0.18939985	     -0.70800230	     10.57302104	     -1.40451354	      0.00000000	      0.00000000	      0.00000000	      0.00000000	      0.00000000	     68.96726671	     -5.52902608	      2.43608060	     39.55726249	     59.35212128	      0.00000000	      5.00000014	     64.38177439	     -4.37309303	     -7.76038331	     39.97485958	     58.72423989	      0.00000000	      5.00000014
